<svg width="27" height="27" viewBox="0 0 27 27" fill="none" xmlns="http://www.w3.org/2000/svg">
<g clip-path="url(#clip0_8_8)">
<path d="M14.2066 0.15293C13.9851 0.0527344 13.7478 0 13.5 0C13.2521 0 13.0148 0.0527344 12.7934 0.15293L2.86347 4.36641C1.70331 4.85684 0.83847 6.00117 0.843743 7.38281C0.870111 12.6141 3.02167 22.1854 12.1078 26.5359C12.9885 26.9578 14.0115 26.9578 14.8922 26.5359C23.9783 22.1854 26.1299 12.6141 26.1562 7.38281C26.1615 6.00117 25.2967 4.85684 24.1365 4.36641L14.2066 0.15293ZM8.43749 8.14219C8.43749 7.83633 8.68534 7.59375 8.98593 7.59375H8.99648C9.17578 7.59375 9.33925 7.67813 9.44472 7.82051L11.5541 10.6313C11.7123 10.8422 11.9654 10.9688 12.2291 10.9688H14.7603C15.024 10.9688 15.2771 10.8422 15.4353 10.6313L17.5447 7.82051C17.6502 7.67813 17.8189 7.59375 17.993 7.59375H18.0035C18.3094 7.59375 18.5519 7.8416 18.5519 8.14219L18.5625 14.3438C18.5625 17.1387 16.2949 19.4062 13.5 19.4062C10.7051 19.4062 8.43749 17.1387 8.43749 14.3438V8.14219ZM11.3906 15.1875C11.6144 15.1875 11.829 15.0986 11.9872 14.9404C12.1455 14.7821 12.2344 14.5675 12.2344 14.3438C12.2344 14.12 12.1455 13.9054 11.9872 13.7471C11.829 13.5889 11.6144 13.5 11.3906 13.5C11.1668 13.5 10.9522 13.5889 10.794 13.7471C10.6358 13.9054 10.5469 14.12 10.5469 14.3438C10.5469 14.5675 10.6358 14.7821 10.794 14.9404C10.9522 15.0986 11.1668 15.1875 11.3906 15.1875ZM16.4531 14.3438C16.4531 14.12 16.3642 13.9054 16.206 13.7471C16.0478 13.5889 15.8331 13.5 15.6094 13.5C15.3856 13.5 15.171 13.5889 15.0127 13.7471C14.8545 13.9054 14.7656 14.12 14.7656 14.3438C14.7656 14.5675 14.8545 14.7821 15.0127 14.9404C15.171 15.0986 15.3856 15.1875 15.6094 15.1875C15.8331 15.1875 16.0478 15.0986 16.206 14.9404C16.3642 14.7821 16.4531 14.5675 16.4531 14.3438Z" fill="black"/>
</g>
<defs>
<clipPath id="clip0_8_8">
<rect width="27" height="27" fill="white"/>
</clipPath>
</defs>
</svg>
