<svg width="16" height="16" viewBox="0 0 16 16" fill="none" xmlns="http://www.w3.org/2000/svg">
<path d="M13.9811 12.9976V3.17505C13.9811 2.45655 13.3131 2.10505 12.7661 2.61255L10.7591 4.59005C10.6656 4.682 10.5397 4.73353 10.4086 4.73355H5.6101C5.47897 4.73353 5.35309 4.682 5.2596 4.59005L3.2526 2.61305C2.7056 2.10555 2.0376 2.45705 2.0376 3.17555V12.9976C2.0376 14.1036 2.9176 15.0001 4.0031 15.0001H12.0156C13.1006 15.0001 13.9811 14.1036 13.9811 12.9976Z" fill="url(#paint0_linear_36_3182)"/>
<path d="M13.9811 12.9976V3.17505C13.9811 2.45655 13.3131 2.10505 12.7661 2.61255L10.7591 4.59005C10.6656 4.682 10.5397 4.73353 10.4086 4.73355H5.6101C5.47897 4.73353 5.35309 4.682 5.2596 4.59005L3.2526 2.61305C2.7056 2.10555 2.0376 2.45705 2.0376 3.17555V12.9976C2.0376 14.1036 2.9176 15.0001 4.0031 15.0001H12.0156C13.1006 15.0001 13.9811 14.1036 13.9811 12.9976Z" fill="url(#paint1_linear_36_3182)"/>
<path d="M13.9811 12.9976V3.17505C13.9811 2.45655 13.3131 2.10505 12.7661 2.61255L10.7591 4.59005C10.6656 4.682 10.5397 4.73353 10.4086 4.73355H5.6101C5.47897 4.73353 5.35309 4.682 5.2596 4.59005L3.2526 2.61305C2.7056 2.10555 2.0376 2.45705 2.0376 3.17555V12.9976C2.0376 14.1036 2.9176 15.0001 4.0031 15.0001H12.0156C13.1006 15.0001 13.9811 14.1036 13.9811 12.9976Z" fill="url(#paint2_linear_36_3182)"/>
<path d="M13.9811 12.9976V3.17505C13.9811 2.45655 13.3131 2.10505 12.7661 2.61255L10.7591 4.59005C10.6656 4.682 10.5397 4.73353 10.4086 4.73355H5.6101C5.47897 4.73353 5.35309 4.682 5.2596 4.59005L3.2526 2.61305C2.7056 2.10555 2.0376 2.45705 2.0376 3.17555V12.9976C2.0376 14.1036 2.9176 15.0001 4.0031 15.0001H12.0156C13.1006 15.0001 13.9811 14.1036 13.9811 12.9976Z" fill="url(#paint3_linear_36_3182)"/>
<path d="M13.9811 12.9976V3.17505C13.9811 2.45655 13.3131 2.10505 12.7661 2.61255L10.7591 4.59005C10.6656 4.682 10.5397 4.73353 10.4086 4.73355H5.6101C5.47897 4.73353 5.35309 4.682 5.2596 4.59005L3.2526 2.61305C2.7056 2.10555 2.0376 2.45705 2.0376 3.17555V12.9976C2.0376 14.1036 2.9176 15.0001 4.0031 15.0001H12.0156C13.1006 15.0001 13.9811 14.1036 13.9811 12.9976Z" fill="url(#paint4_linear_36_3182)"/>
<path d="M13.9811 12.9976V3.17505C13.9811 2.45655 13.3131 2.10505 12.7661 2.61255L10.7591 4.59005C10.6656 4.682 10.5397 4.73353 10.4086 4.73355H5.6101C5.47897 4.73353 5.35309 4.682 5.2596 4.59005L3.2526 2.61305C2.7056 2.10555 2.0376 2.45705 2.0376 3.17555V12.9976C2.0376 14.1036 2.9176 15.0001 4.0031 15.0001H12.0156C13.1006 15.0001 13.9811 14.1036 13.9811 12.9976Z" fill="url(#paint5_radial_36_3182)"/>
<g filter="url(#filter0_f_36_3182)">
<path d="M3.2091 10.875H3.2086C2.83222 10.875 2.5271 11.1801 2.5271 11.5565V12.0425C2.5271 12.4189 2.83222 12.724 3.2086 12.724H3.2091C3.58548 12.724 3.8906 12.4189 3.8906 12.0425V11.5565C3.8906 11.1801 3.58548 10.875 3.2091 10.875Z" fill="#D67908"/>
</g>
<g filter="url(#filter1_f_36_3182)">
<path d="M10.2931 5.08242C8.80108 5.13642 12.9061 7.55942 12.9061 7.55942L13.4686 3.02792C13.4961 2.79792 13.2866 2.55142 12.8436 2.96292L10.8366 4.93892C10.7431 5.03092 10.6326 5.06292 10.4861 5.08242C10.4111 5.09242 10.3681 5.07992 10.2926 5.08242" fill="url(#paint6_linear_36_3182)"/>
</g>
<path d="M3.06658 6.71678L4.46658 5.41679C4.62658 5.26679 4.62658 5.02678 4.46658 4.88178L2.95908 3.54329C2.76758 3.37529 2.37158 3.42978 2.37158 3.84678V6.44678C2.37158 6.86378 2.81158 6.95678 3.06658 6.71678Z" fill="url(#paint7_linear_36_3182)"/>
<g filter="url(#filter2_f_36_3182)">
<path d="M13.2451 2.79127C13.2617 2.7505 13.2919 2.71675 13.3306 2.69579C13.3693 2.67483 13.4141 2.66795 13.4573 2.67633C13.5005 2.68471 13.5394 2.70783 13.5675 2.74175C13.5955 2.77566 13.611 2.81826 13.6111 2.86227V3.98477L12.9026 3.64077L13.2451 2.79127Z" fill="url(#paint8_linear_36_3182)"/>
</g>
<g filter="url(#filter3_f_36_3182)">
<path d="M2.70312 3.03174L4.39062 4.64124C4.76763 5.00124 4.77463 5.60024 4.40613 5.96924" stroke="#FFDF70" stroke-width="0.5" stroke-linecap="round"/>
</g>
<g filter="url(#filter4_f_36_3182)">
<path d="M7.40257 9.78151L7.43507 9.77401C7.67157 9.71901 7.91807 9.72101 8.15407 9.78151C8.41407 9.83051 8.57007 10.129 8.35007 10.344L8.07507 10.645C7.94007 10.78 7.64307 10.78 7.50807 10.645L7.23657 10.344C7.01207 10.09 7.15257 9.83651 7.40257 9.78151Z" fill="url(#paint9_linear_36_3182)"/>
</g>
<path d="M7.61348 9.55966L7.64548 9.55216C7.8823 9.49712 8.12886 9.49969 8.36448 9.55966C8.62498 9.60866 8.78048 9.90716 8.56048 10.1222L8.28548 10.4232C8.15048 10.5582 7.85348 10.5582 7.71848 10.4232L7.44748 10.1222C7.22248 9.86866 7.36348 9.61466 7.61348 9.55966Z" fill="url(#paint10_radial_36_3182)"/>
<g filter="url(#filter5_f_36_3182)">
<path d="M8.13515 9.96394C8.34557 9.96394 8.51615 9.9026 8.51615 9.82694C8.51615 9.75128 8.34557 9.68994 8.13515 9.68994C7.92473 9.68994 7.75415 9.75128 7.75415 9.82694C7.75415 9.9026 7.92473 9.96394 8.13515 9.96394Z" fill="url(#paint11_linear_36_3182)"/>
</g>
<g filter="url(#filter6_f_36_3182)">
<path d="M12.3926 11.4109L14.2951 10.5044" stroke="url(#paint12_linear_36_3182)" stroke-width="0.6" stroke-miterlimit="10" stroke-linecap="round"/>
</g>
<g filter="url(#filter7_f_36_3182)">
<path d="M12.3926 12.4268L13.3561 13.1098" stroke="url(#paint13_linear_36_3182)" stroke-width="0.6" stroke-miterlimit="10" stroke-linecap="round"/>
</g>
<path d="M12.783 11.2346L14.6855 10.3281" stroke="url(#paint14_linear_36_3182)" stroke-width="0.6" stroke-miterlimit="10" stroke-linecap="round"/>
<g filter="url(#filter8_f_36_3182)">
<path d="M12.783 11.3201L14.6855 10.4141" stroke="#FF8485" stroke-width="0.15" stroke-miterlimit="10" stroke-linecap="round"/>
</g>
<path d="M12.782 12.2993L14.6825 13.2088" stroke="url(#paint15_linear_36_3182)" stroke-width="0.6" stroke-miterlimit="10" stroke-linecap="round"/>
<g filter="url(#filter9_f_36_3182)">
<path d="M12.749 12.2397L14.65 13.1492" stroke="#FF8485" stroke-width="0.15" stroke-miterlimit="10" stroke-linecap="round"/>
</g>
<path d="M3.26403 12.3052L1.36353 13.2152" stroke="url(#paint16_linear_36_3182)" stroke-width="0.6" stroke-miterlimit="10" stroke-linecap="round"/>
<g filter="url(#filter10_f_36_3182)">
<path d="M3.2965 12.2451L1.396 13.1551" stroke="#FF8485" stroke-width="0.15" stroke-miterlimit="10" stroke-linecap="round"/>
</g>
<g filter="url(#filter11_f_36_3182)">
<path d="M3.29542 12.2957C3.24751 12.2788 3.22107 12.23 3.23635 12.1868C3.25164 12.1436 3.30286 12.1223 3.35076 12.1392C3.39867 12.1562 3.42511 12.205 3.40983 12.2482C3.39454 12.2914 3.34332 12.3127 3.29542 12.2957Z" fill="#FFDD86"/>
</g>
<path d="M3.27004 11.2271L1.36304 10.3301" stroke="url(#paint17_linear_36_3182)" stroke-width="0.6" stroke-miterlimit="10" stroke-linecap="round"/>
<g filter="url(#filter12_f_36_3182)">
<path d="M3.33693 11.2139L1.42993 10.3174" stroke="#FF8485" stroke-width="0.15" stroke-miterlimit="10" stroke-linecap="round"/>
</g>
<g filter="url(#filter13_f_36_3182)">
<path d="M3.29753 11.2449C3.28035 11.1971 3.3014 11.1458 3.34454 11.1303C3.38768 11.1148 3.43658 11.141 3.45376 11.1888C3.47094 11.2366 3.44989 11.288 3.40675 11.3035C3.36361 11.319 3.31471 11.2928 3.29753 11.2449Z" fill="#FFDD86"/>
</g>
<g filter="url(#filter14_f_36_3182)">
<path d="M11.051 5.01562H13.3435V12.1086H11.051V5.01562Z" fill="url(#paint18_linear_36_3182)"/>
</g>
<path d="M12.9166 6.71678L11.5166 5.41679C11.4788 5.3832 11.4486 5.342 11.4279 5.29589C11.4072 5.24979 11.3965 5.19982 11.3965 5.14929C11.3965 5.09875 11.4072 5.04878 11.4279 5.00268C11.4486 4.95657 11.4788 4.91537 11.5166 4.88178L13.0241 3.54329C13.2151 3.37529 13.6116 3.42978 13.6116 3.84678V6.44678C13.6116 6.86378 13.1716 6.95678 12.9166 6.71678Z" fill="#FFB915"/>
<path d="M12.9166 6.71678L11.5166 5.41679C11.4788 5.3832 11.4486 5.342 11.4279 5.29589C11.4072 5.24979 11.3965 5.19982 11.3965 5.14929C11.3965 5.09875 11.4072 5.04878 11.4279 5.00268C11.4486 4.95657 11.4788 4.91537 11.5166 4.88178L13.0241 3.54329C13.2151 3.37529 13.6116 3.42978 13.6116 3.84678V6.44678C13.6116 6.86378 13.1716 6.95678 12.9166 6.71678Z" fill="url(#paint19_linear_36_3182)"/>
<g filter="url(#filter15_f_36_3182)">
<path d="M13.3171 3.64844L11.5046 5.21094L13.2776 6.61694L13.3171 3.64844Z" fill="url(#paint20_radial_36_3182)"/>
</g>
<g filter="url(#filter16_f_36_3182)">
<path d="M11.8635 5.10938L13.1295 6.47638" stroke="url(#paint21_linear_36_3182)" stroke-width="0.25" stroke-linecap="round"/>
</g>
<g filter="url(#filter17_f_36_3182)">
<path d="M2.61157 3.71436V6.66836L4.34607 5.12336L2.61157 3.71436Z" fill="#FEB33E"/>
</g>
<g filter="url(#filter18_f_36_3182)">
<path d="M2.61157 3.82812V6.42212" stroke="#FFE7A3" stroke-width="0.075" stroke-linecap="round"/>
</g>
<g filter="url(#filter19_f_36_3182)">
<path d="M11.1541 14.088C12.0353 14.088 12.7496 13.3736 12.7496 12.4925C12.7496 11.6113 12.0353 10.897 11.1541 10.897C10.2729 10.897 9.55859 11.6113 9.55859 12.4925C9.55859 13.3736 10.2729 14.088 11.1541 14.088Z" fill="url(#paint22_linear_36_3182)"/>
</g>
<path d="M10.4941 11.8985C10.4941 11.3701 10.704 10.8634 11.0777 10.4898C11.4513 10.1161 11.958 9.90625 12.4864 9.90625C13.0148 9.90625 13.5215 10.1161 13.8951 10.4898C14.2687 10.8634 14.4786 11.3701 14.4786 11.8985V15H10.4941V11.8985Z" fill="url(#paint23_linear_36_3182)"/>
<path d="M10.4941 11.8985C10.4941 11.3701 10.704 10.8634 11.0777 10.4898C11.4513 10.1161 11.958 9.90625 12.4864 9.90625C13.0148 9.90625 13.5215 10.1161 13.8951 10.4898C14.2687 10.8634 14.4786 11.3701 14.4786 11.8985V15H10.4941V11.8985Z" fill="url(#paint24_linear_36_3182)"/>
<path d="M10.4941 11.8985C10.4941 11.3701 10.704 10.8634 11.0777 10.4898C11.4513 10.1161 11.958 9.90625 12.4864 9.90625C13.0148 9.90625 13.5215 10.1161 13.8951 10.4898C14.2687 10.8634 14.4786 11.3701 14.4786 11.8985V15H10.4941V11.8985Z" fill="url(#paint25_linear_36_3182)"/>
<g filter="url(#filter20_f_36_3182)">
<path d="M13.0252 10.1701C13.0242 10.1564 13.026 10.1426 13.0306 10.1297C13.0352 10.1167 13.0424 10.1049 13.0517 10.0948C13.0611 10.0848 13.0724 10.0768 13.085 10.0713C13.0976 10.0658 13.1112 10.063 13.1249 10.063C13.1386 10.063 13.1522 10.0658 13.1648 10.0713C13.1774 10.0768 13.1887 10.0848 13.1981 10.0948C13.2074 10.1049 13.2146 10.1167 13.2192 10.1297C13.2238 10.1426 13.2256 10.1564 13.2247 10.1701V11.5296C13.2229 11.5548 13.2116 11.5784 13.1931 11.5957C13.1746 11.6129 13.1502 11.6225 13.1249 11.6225C13.0996 11.6225 13.0752 11.6129 13.0567 11.5957C13.0382 11.5784 13.0269 11.5548 13.0252 11.5296V10.1701Z" fill="#DA7600" fill-opacity="0.5"/>
</g>
<g filter="url(#filter21_f_36_3182)">
<path d="M11.4866 10.1718C11.4866 10.1449 11.4973 10.1191 11.5163 10.1C11.5353 10.081 11.5612 10.0703 11.5881 10.0703C11.615 10.0703 11.6408 10.081 11.6598 10.1C11.6789 10.1191 11.6896 10.1449 11.6896 10.1718V11.4768C11.6896 11.5037 11.6789 11.5295 11.6598 11.5486C11.6408 11.5676 11.615 11.5783 11.5881 11.5783C11.5612 11.5783 11.5353 11.5676 11.5163 11.5486C11.4973 11.5295 11.4866 11.5037 11.4866 11.4768V10.1718Z" fill="#DA7600" fill-opacity="0.75"/>
</g>
<g filter="url(#filter22_f_36_3182)">
<path d="M13.8712 11.7322C14.0789 11.6254 14.1085 11.2686 13.9371 10.9353C13.7658 10.6021 13.4585 10.4185 13.2507 10.5253C13.0429 10.6322 13.0134 10.9889 13.1847 11.3222C13.3561 11.6554 13.6634 11.839 13.8712 11.7322Z" fill="#FDD659"/>
</g>
<path d="M11.5566 10.0274C11.5566 9.98282 11.5743 9.94009 11.6058 9.90858C11.6374 9.87707 11.6801 9.85938 11.7246 9.85938C11.7692 9.85938 11.8119 9.87707 11.8434 9.90858C11.8749 9.94009 11.8926 9.98282 11.8926 10.0274V11.4099C11.8926 11.4544 11.8749 11.4972 11.8434 11.5287C11.8119 11.5602 11.7692 11.5779 11.7246 11.5779C11.6801 11.5779 11.6374 11.5602 11.6058 11.5287C11.5743 11.4972 11.5566 11.4544 11.5566 11.4099V10.0274Z" fill="url(#paint26_linear_36_3182)"/>
<path d="M11.5566 10.0274C11.5566 9.98282 11.5743 9.94009 11.6058 9.90858C11.6374 9.87707 11.6801 9.85938 11.7246 9.85938C11.7692 9.85938 11.8119 9.87707 11.8434 9.90858C11.8749 9.94009 11.8926 9.98282 11.8926 10.0274V11.4099C11.8926 11.4544 11.8749 11.4972 11.8434 11.5287C11.8119 11.5602 11.7692 11.5779 11.7246 11.5779C11.6801 11.5779 11.6374 11.5602 11.6058 11.5287C11.5743 11.4972 11.5566 11.4544 11.5566 11.4099V10.0274Z" fill="url(#paint27_linear_36_3182)"/>
<path d="M11.5566 10.0274C11.5566 9.98282 11.5743 9.94009 11.6058 9.90858C11.6374 9.87707 11.6801 9.85938 11.7246 9.85938C11.7692 9.85938 11.8119 9.87707 11.8434 9.90858C11.8749 9.94009 11.8926 9.98282 11.8926 10.0274V11.4099C11.8926 11.4544 11.8749 11.4972 11.8434 11.5287C11.8119 11.5602 11.7692 11.5779 11.7246 11.5779C11.6801 11.5779 11.6374 11.5602 11.6058 11.5287C11.5743 11.4972 11.5566 11.4544 11.5566 11.4099V10.0274Z" fill="url(#paint28_linear_36_3182)"/>
<path d="M13.0801 10.0274C13.0801 9.98282 13.0978 9.94009 13.1293 9.90858C13.1608 9.87707 13.2035 9.85938 13.2481 9.85938C13.2926 9.85938 13.3354 9.87707 13.3669 9.90858C13.3984 9.94009 13.4161 9.98282 13.4161 10.0274V11.4099C13.4161 11.4544 13.3984 11.4972 13.3669 11.5287C13.3354 11.5602 13.2926 11.5779 13.2481 11.5779C13.2035 11.5779 13.1608 11.5602 13.1293 11.5287C13.0978 11.4972 13.0801 11.4544 13.0801 11.4099V10.0274Z" fill="url(#paint29_linear_36_3182)"/>
<path d="M13.0801 10.0274C13.0801 9.98282 13.0978 9.94009 13.1293 9.90858C13.1608 9.87707 13.2035 9.85938 13.2481 9.85938C13.2926 9.85938 13.3354 9.87707 13.3669 9.90858C13.3984 9.94009 13.4161 9.98282 13.4161 10.0274V11.4099C13.4161 11.4544 13.3984 11.4972 13.3669 11.5287C13.3354 11.5602 13.2926 11.5779 13.2481 11.5779C13.2035 11.5779 13.1608 11.5602 13.1293 11.5287C13.0978 11.4972 13.0801 11.4544 13.0801 11.4099V10.0274Z" fill="url(#paint30_linear_36_3182)"/>
<path d="M13.0801 10.0274C13.0801 9.98282 13.0978 9.94009 13.1293 9.90858C13.1608 9.87707 13.2035 9.85938 13.2481 9.85938C13.2926 9.85938 13.3354 9.87707 13.3669 9.90858C13.3984 9.94009 13.4161 9.98282 13.4161 10.0274V11.4099C13.4161 11.4544 13.3984 11.4972 13.3669 11.5287C13.3354 11.5602 13.2926 11.5779 13.2481 11.5779C13.2035 11.5779 13.1608 11.5602 13.1293 11.5287C13.0978 11.4972 13.0801 11.4544 13.0801 11.4099V10.0274Z" fill="url(#paint31_linear_36_3182)"/>
<g filter="url(#filter23_f_36_3182)">
<path d="M13.334 11.3399V10.2344" stroke="url(#paint32_linear_36_3182)" stroke-width="0.1" stroke-linecap="round"/>
</g>
<g filter="url(#filter24_f_36_3182)">
<path d="M11.8105 11.3399V10.2344" stroke="url(#paint33_linear_36_3182)" stroke-width="0.1" stroke-linecap="round"/>
</g>
<g filter="url(#filter25_f_36_3182)">
<path d="M11.8105 11.3399V10.2344" stroke="url(#paint34_linear_36_3182)" stroke-width="0.1" stroke-linecap="round"/>
</g>
<g filter="url(#filter26_f_36_3182)">
<path d="M5.54092 9.73468C6.50521 9.73468 7.28692 8.95297 7.28692 7.98868C7.28692 7.02439 6.50521 6.24268 5.54092 6.24268C4.57663 6.24268 3.79492 7.02439 3.79492 7.98868C3.79492 8.95297 4.57663 9.73468 5.54092 9.73468Z" fill="url(#paint35_linear_36_3182)"/>
</g>
<g filter="url(#filter27_f_36_3182)">
<path d="M10.0451 9.68939C10.9534 9.68939 11.6896 8.95312 11.6896 8.04489C11.6896 7.13666 10.9534 6.40039 10.0451 6.40039C9.1369 6.40039 8.40063 7.13666 8.40063 8.04489C8.40063 8.95312 9.1369 9.68939 10.0451 9.68939Z" fill="url(#paint36_linear_36_3182)"/>
</g>
<path d="M10.2421 9.53497C11.2064 9.53497 11.9881 8.75326 11.9881 7.78897C11.9881 6.82468 11.2064 6.04297 10.2421 6.04297C9.2778 6.04297 8.49609 6.82468 8.49609 7.78897C8.49609 8.75326 9.2778 9.53497 10.2421 9.53497Z" fill="white"/>
<path d="M5.75796 9.53497C6.72225 9.53497 7.50396 8.75326 7.50396 7.78897C7.50396 6.82468 6.72225 6.04297 5.75796 6.04297C4.79367 6.04297 4.01196 6.82468 4.01196 7.78897C4.01196 8.75326 4.79367 9.53497 5.75796 9.53497Z" fill="white"/>
<path d="M9.08606 12.004C9.08606 11.4042 8.59984 10.918 8.00006 10.918C7.40028 10.918 6.91406 11.4042 6.91406 12.004V12.5585C6.91406 13.1583 7.40028 13.6445 8.00006 13.6445C8.59984 13.6445 9.08606 13.1583 9.08606 12.5585V12.004Z" fill="url(#paint37_radial_36_3182)"/>
<path d="M1.52148 11.8985C1.52148 11.3701 1.73138 10.8634 2.105 10.4898C2.47862 10.1161 2.98536 9.90625 3.51373 9.90625C4.04211 9.90625 4.54885 10.1161 4.92247 10.4898C5.29609 10.8634 5.50598 11.3701 5.50598 11.8985V15H1.52148V11.8985Z" fill="url(#paint38_linear_36_3182)"/>
<path d="M1.52148 11.8985C1.52148 11.3701 1.73138 10.8634 2.105 10.4898C2.47862 10.1161 2.98536 9.90625 3.51373 9.90625C4.04211 9.90625 4.54885 10.1161 4.92247 10.4898C5.29609 10.8634 5.50598 11.3701 5.50598 11.8985V15H1.52148V11.8985Z" fill="url(#paint39_linear_36_3182)"/>
<path d="M1.52148 11.8985C1.52148 11.3701 1.73138 10.8634 2.105 10.4898C2.47862 10.1161 2.98536 9.90625 3.51373 9.90625C4.04211 9.90625 4.54885 10.1161 4.92247 10.4898C5.29609 10.8634 5.50598 11.3701 5.50598 11.8985V15H1.52148V11.8985Z" fill="url(#paint40_linear_36_3182)"/>
<g filter="url(#filter28_f_36_3182)">
<path d="M4.89828 11.7322C5.10604 11.6254 5.13557 11.2686 4.96423 10.9353C4.79289 10.6021 4.48557 10.4185 4.2778 10.5253C4.07004 10.6322 4.04051 10.9889 4.21185 11.3222C4.38319 11.6554 4.69051 11.839 4.89828 11.7322Z" fill="#FDD659"/>
</g>
<g filter="url(#filter29_f_36_3182)">
<path d="M4.10742 10.1718C4.10742 10.1449 4.11812 10.1191 4.13715 10.1C4.15619 10.081 4.182 10.0703 4.20892 10.0703C4.23584 10.0703 4.26166 10.081 4.28069 10.1C4.29973 10.1191 4.31042 10.1449 4.31042 10.1718V11.4768C4.31042 11.5037 4.29973 11.5295 4.28069 11.5486C4.26166 11.5676 4.23584 11.5783 4.20892 11.5783C4.182 11.5783 4.15619 11.5676 4.13715 11.5486C4.11812 11.5295 4.10742 11.5037 4.10742 11.4768V10.1718Z" fill="#DA7600" fill-opacity="0.5"/>
</g>
<g filter="url(#filter30_f_36_3182)">
<path d="M2.54907 10.1718C2.54907 10.1449 2.55977 10.1191 2.5788 10.1C2.59784 10.081 2.62365 10.0703 2.65057 10.0703C2.67749 10.0703 2.70331 10.081 2.72234 10.1C2.74138 10.1191 2.75207 10.1449 2.75207 10.1718V11.4768C2.75207 11.5037 2.74138 11.5295 2.72234 11.5486C2.70331 11.5676 2.67749 11.5783 2.65057 11.5783C2.62365 11.5783 2.59784 11.5676 2.5788 11.5486C2.55977 11.5295 2.54907 11.5037 2.54907 11.4768V10.1718Z" fill="#DA7600" fill-opacity="0.75"/>
</g>
<path d="M2.58398 10.0274C2.58398 9.98282 2.60168 9.94009 2.63319 9.90858C2.6647 9.87707 2.70743 9.85937 2.75198 9.85938C2.79654 9.85937 2.83927 9.87707 2.87078 9.90858C2.90228 9.94009 2.91998 9.98282 2.91998 10.0274V11.4099C2.91998 11.4544 2.90228 11.4972 2.87078 11.5287C2.83927 11.5602 2.79654 11.5779 2.75198 11.5779C2.70743 11.5779 2.6647 11.5602 2.63319 11.5287C2.60168 11.4972 2.58398 11.4544 2.58398 11.4099V10.0274Z" fill="url(#paint41_linear_36_3182)"/>
<path d="M2.58398 10.0274C2.58398 9.98282 2.60168 9.94009 2.63319 9.90858C2.6647 9.87707 2.70743 9.85937 2.75198 9.85938C2.79654 9.85937 2.83927 9.87707 2.87078 9.90858C2.90228 9.94009 2.91998 9.98282 2.91998 10.0274V11.4099C2.91998 11.4544 2.90228 11.4972 2.87078 11.5287C2.83927 11.5602 2.79654 11.5779 2.75198 11.5779C2.70743 11.5779 2.6647 11.5602 2.63319 11.5287C2.60168 11.4972 2.58398 11.4544 2.58398 11.4099V10.0274Z" fill="url(#paint42_linear_36_3182)"/>
<path d="M2.58398 10.0274C2.58398 9.98282 2.60168 9.94009 2.63319 9.90858C2.6647 9.87707 2.70743 9.85937 2.75198 9.85938C2.79654 9.85937 2.83927 9.87707 2.87078 9.90858C2.90228 9.94009 2.91998 9.98282 2.91998 10.0274V11.4099C2.91998 11.4544 2.90228 11.4972 2.87078 11.5287C2.83927 11.5602 2.79654 11.5779 2.75198 11.5779C2.70743 11.5779 2.6647 11.5602 2.63319 11.5287C2.60168 11.4972 2.58398 11.4544 2.58398 11.4099V10.0274Z" fill="url(#paint43_linear_36_3182)"/>
<path d="M4.10742 10.0274C4.10742 9.98282 4.12512 9.94009 4.15663 9.90858C4.18813 9.87707 4.23087 9.85938 4.27542 9.85938C4.31998 9.85938 4.36271 9.87707 4.39422 9.90858C4.42572 9.94009 4.44342 9.98282 4.44342 10.0274V11.4099C4.44342 11.4544 4.42572 11.4972 4.39422 11.5287C4.36271 11.5602 4.31998 11.5779 4.27542 11.5779C4.23087 11.5779 4.18813 11.5602 4.15663 11.5287C4.12512 11.4972 4.10742 11.4544 4.10742 11.4099V10.0274Z" fill="url(#paint44_linear_36_3182)"/>
<path d="M4.10742 10.0274C4.10742 9.98282 4.12512 9.94009 4.15663 9.90858C4.18813 9.87707 4.23087 9.85938 4.27542 9.85938C4.31998 9.85938 4.36271 9.87707 4.39422 9.90858C4.42572 9.94009 4.44342 9.98282 4.44342 10.0274V11.4099C4.44342 11.4544 4.42572 11.4972 4.39422 11.5287C4.36271 11.5602 4.31998 11.5779 4.27542 11.5779C4.23087 11.5779 4.18813 11.5602 4.15663 11.5287C4.12512 11.4972 4.10742 11.4544 4.10742 11.4099V10.0274Z" fill="url(#paint45_linear_36_3182)"/>
<path d="M4.10742 10.0274C4.10742 9.98282 4.12512 9.94009 4.15663 9.90858C4.18813 9.87707 4.23087 9.85938 4.27542 9.85938C4.31998 9.85938 4.36271 9.87707 4.39422 9.90858C4.42572 9.94009 4.44342 9.98282 4.44342 10.0274V11.4099C4.44342 11.4544 4.42572 11.4972 4.39422 11.5287C4.36271 11.5602 4.31998 11.5779 4.27542 11.5779C4.23087 11.5779 4.18813 11.5602 4.15663 11.5287C4.12512 11.4972 4.10742 11.4544 4.10742 11.4099V10.0274Z" fill="url(#paint46_linear_36_3182)"/>
<g filter="url(#filter31_f_36_3182)">
<path d="M4.36157 11.3399V10.2344" stroke="url(#paint47_linear_36_3182)" stroke-width="0.1" stroke-linecap="round"/>
</g>
<g filter="url(#filter32_f_36_3182)">
<path d="M2.83813 11.3399V10.2344" stroke="url(#paint48_linear_36_3182)" stroke-width="0.1" stroke-linecap="round"/>
</g>
<defs>
<filter id="filter0_f_36_3182" x="1.7771" y="10.125" width="2.86353" height="3.34912" filterUnits="userSpaceOnUse" color-interpolation-filters="sRGB">
<feFlood flood-opacity="0" result="BackgroundImageFix"/>
<feBlend mode="normal" in="SourceGraphic" in2="BackgroundImageFix" result="shape"/>
<feGaussianBlur stdDeviation="0.375" result="effect1_foregroundBlur_36_3182"/>
</filter>
<filter id="filter1_f_36_3182" x="9.46655" y="2.2417" width="4.50439" height="5.81787" filterUnits="userSpaceOnUse" color-interpolation-filters="sRGB">
<feFlood flood-opacity="0" result="BackgroundImageFix"/>
<feBlend mode="normal" in="SourceGraphic" in2="BackgroundImageFix" result="shape"/>
<feGaussianBlur stdDeviation="0.25" result="effect1_foregroundBlur_36_3182"/>
</filter>
<filter id="filter2_f_36_3182" x="12.4026" y="2.17285" width="1.7085" height="2.31201" filterUnits="userSpaceOnUse" color-interpolation-filters="sRGB">
<feFlood flood-opacity="0" result="BackgroundImageFix"/>
<feBlend mode="normal" in="SourceGraphic" in2="BackgroundImageFix" result="shape"/>
<feGaussianBlur stdDeviation="0.25" result="effect1_foregroundBlur_36_3182"/>
</filter>
<filter id="filter3_f_36_3182" x="1.45312" y="1.78174" width="4.47485" height="5.4375" filterUnits="userSpaceOnUse" color-interpolation-filters="sRGB">
<feFlood flood-opacity="0" result="BackgroundImageFix"/>
<feBlend mode="normal" in="SourceGraphic" in2="BackgroundImageFix" result="shape"/>
<feGaussianBlur stdDeviation="0.5" result="effect1_foregroundBlur_36_3182"/>
</filter>
<filter id="filter4_f_36_3182" x="6.87402" y="9.48438" width="1.83081" height="1.51172" filterUnits="userSpaceOnUse" color-interpolation-filters="sRGB">
<feFlood flood-opacity="0" result="BackgroundImageFix"/>
<feBlend mode="normal" in="SourceGraphic" in2="BackgroundImageFix" result="shape"/>
<feGaussianBlur stdDeviation="0.125" result="effect1_foregroundBlur_36_3182"/>
</filter>
<filter id="filter5_f_36_3182" x="7.45415" y="9.38994" width="1.36196" height="0.873926" filterUnits="userSpaceOnUse" color-interpolation-filters="sRGB">
<feFlood flood-opacity="0" result="BackgroundImageFix"/>
<feBlend mode="normal" in="SourceGraphic" in2="BackgroundImageFix" result="shape"/>
<feGaussianBlur stdDeviation="0.15" result="effect1_foregroundBlur_36_3182"/>
</filter>
<filter id="filter6_f_36_3182" x="11.8425" y="9.9541" width="3.00269" height="2.00684" filterUnits="userSpaceOnUse" color-interpolation-filters="sRGB">
<feFlood flood-opacity="0" result="BackgroundImageFix"/>
<feBlend mode="normal" in="SourceGraphic" in2="BackgroundImageFix" result="shape"/>
<feGaussianBlur stdDeviation="0.125" result="effect1_foregroundBlur_36_3182"/>
</filter>
<filter id="filter7_f_36_3182" x="11.8425" y="11.877" width="2.06348" height="1.78271" filterUnits="userSpaceOnUse" color-interpolation-filters="sRGB">
<feFlood flood-opacity="0" result="BackgroundImageFix"/>
<feBlend mode="normal" in="SourceGraphic" in2="BackgroundImageFix" result="shape"/>
<feGaussianBlur stdDeviation="0.125" result="effect1_foregroundBlur_36_3182"/>
</filter>
<filter id="filter8_f_36_3182" x="12.458" y="10.0889" width="2.55249" height="1.55615" filterUnits="userSpaceOnUse" color-interpolation-filters="sRGB">
<feFlood flood-opacity="0" result="BackgroundImageFix"/>
<feBlend mode="normal" in="SourceGraphic" in2="BackgroundImageFix" result="shape"/>
<feGaussianBlur stdDeviation="0.125" result="effect1_foregroundBlur_36_3182"/>
</filter>
<filter id="filter9_f_36_3182" x="12.4241" y="11.9146" width="2.55103" height="1.55957" filterUnits="userSpaceOnUse" color-interpolation-filters="sRGB">
<feFlood flood-opacity="0" result="BackgroundImageFix"/>
<feBlend mode="normal" in="SourceGraphic" in2="BackgroundImageFix" result="shape"/>
<feGaussianBlur stdDeviation="0.125" result="effect1_foregroundBlur_36_3182"/>
</filter>
<filter id="filter10_f_36_3182" x="1.07104" y="11.9199" width="2.55054" height="1.56006" filterUnits="userSpaceOnUse" color-interpolation-filters="sRGB">
<feFlood flood-opacity="0" result="BackgroundImageFix"/>
<feBlend mode="normal" in="SourceGraphic" in2="BackgroundImageFix" result="shape"/>
<feGaussianBlur stdDeviation="0.125" result="effect1_foregroundBlur_36_3182"/>
</filter>
<filter id="filter11_f_36_3182" x="2.98193" y="11.8833" width="0.682129" height="0.668457" filterUnits="userSpaceOnUse" color-interpolation-filters="sRGB">
<feFlood flood-opacity="0" result="BackgroundImageFix"/>
<feBlend mode="normal" in="SourceGraphic" in2="BackgroundImageFix" result="shape"/>
<feGaussianBlur stdDeviation="0.125" result="effect1_foregroundBlur_36_3182"/>
</filter>
<filter id="filter12_f_36_3182" x="1.10498" y="9.99219" width="2.55688" height="1.54688" filterUnits="userSpaceOnUse" color-interpolation-filters="sRGB">
<feFlood flood-opacity="0" result="BackgroundImageFix"/>
<feBlend mode="normal" in="SourceGraphic" in2="BackgroundImageFix" result="shape"/>
<feGaussianBlur stdDeviation="0.125" result="effect1_foregroundBlur_36_3182"/>
</filter>
<filter id="filter13_f_36_3182" x="3.0415" y="10.876" width="0.668213" height="0.682129" filterUnits="userSpaceOnUse" color-interpolation-filters="sRGB">
<feFlood flood-opacity="0" result="BackgroundImageFix"/>
<feBlend mode="normal" in="SourceGraphic" in2="BackgroundImageFix" result="shape"/>
<feGaussianBlur stdDeviation="0.125" result="effect1_foregroundBlur_36_3182"/>
</filter>
<filter id="filter14_f_36_3182" x="9.05103" y="3.01562" width="6.29248" height="11.0928" filterUnits="userSpaceOnUse" color-interpolation-filters="sRGB">
<feFlood flood-opacity="0" result="BackgroundImageFix"/>
<feBlend mode="normal" in="SourceGraphic" in2="BackgroundImageFix" result="shape"/>
<feGaussianBlur stdDeviation="1" result="effect1_foregroundBlur_36_3182"/>
</filter>
<filter id="filter15_f_36_3182" x="11.2046" y="3.34844" width="2.4125" height="3.56826" filterUnits="userSpaceOnUse" color-interpolation-filters="sRGB">
<feFlood flood-opacity="0" result="BackgroundImageFix"/>
<feBlend mode="normal" in="SourceGraphic" in2="BackgroundImageFix" result="shape"/>
<feGaussianBlur stdDeviation="0.15" result="effect1_foregroundBlur_36_3182"/>
</filter>
<filter id="filter16_f_36_3182" x="11.3635" y="4.60938" width="2.26611" height="2.36719" filterUnits="userSpaceOnUse" color-interpolation-filters="sRGB">
<feFlood flood-opacity="0" result="BackgroundImageFix"/>
<feBlend mode="normal" in="SourceGraphic" in2="BackgroundImageFix" result="shape"/>
<feGaussianBlur stdDeviation="0.1875" result="effect1_foregroundBlur_36_3182"/>
</filter>
<filter id="filter17_f_36_3182" x="2.36157" y="3.46436" width="2.23462" height="3.4541" filterUnits="userSpaceOnUse" color-interpolation-filters="sRGB">
<feFlood flood-opacity="0" result="BackgroundImageFix"/>
<feBlend mode="normal" in="SourceGraphic" in2="BackgroundImageFix" result="shape"/>
<feGaussianBlur stdDeviation="0.125" result="effect1_foregroundBlur_36_3182"/>
</filter>
<filter id="filter18_f_36_3182" x="2.32397" y="3.54053" width="0.575195" height="3.16895" filterUnits="userSpaceOnUse" color-interpolation-filters="sRGB">
<feFlood flood-opacity="0" result="BackgroundImageFix"/>
<feBlend mode="normal" in="SourceGraphic" in2="BackgroundImageFix" result="shape"/>
<feGaussianBlur stdDeviation="0.125" result="effect1_foregroundBlur_36_3182"/>
</filter>
<filter id="filter19_f_36_3182" x="8.55859" y="9.89697" width="5.19092" height="5.19092" filterUnits="userSpaceOnUse" color-interpolation-filters="sRGB">
<feFlood flood-opacity="0" result="BackgroundImageFix"/>
<feBlend mode="normal" in="SourceGraphic" in2="BackgroundImageFix" result="shape"/>
<feGaussianBlur stdDeviation="0.5" result="effect1_foregroundBlur_36_3182"/>
</filter>
<filter id="filter20_f_36_3182" x="12.7749" y="9.81299" width="0.699951" height="2.05957" filterUnits="userSpaceOnUse" color-interpolation-filters="sRGB">
<feFlood flood-opacity="0" result="BackgroundImageFix"/>
<feBlend mode="normal" in="SourceGraphic" in2="BackgroundImageFix" result="shape"/>
<feGaussianBlur stdDeviation="0.125" result="effect1_foregroundBlur_36_3182"/>
</filter>
<filter id="filter21_f_36_3182" x="11.2366" y="9.82031" width="0.702881" height="2.00781" filterUnits="userSpaceOnUse" color-interpolation-filters="sRGB">
<feFlood flood-opacity="0" result="BackgroundImageFix"/>
<feBlend mode="normal" in="SourceGraphic" in2="BackgroundImageFix" result="shape"/>
<feGaussianBlur stdDeviation="0.125" result="effect1_foregroundBlur_36_3182"/>
</filter>
<filter id="filter22_f_36_3182" x="12.3232" y="9.74512" width="2.47534" height="2.76758" filterUnits="userSpaceOnUse" color-interpolation-filters="sRGB">
<feFlood flood-opacity="0" result="BackgroundImageFix"/>
<feBlend mode="normal" in="SourceGraphic" in2="BackgroundImageFix" result="shape"/>
<feGaussianBlur stdDeviation="0.375" result="effect1_foregroundBlur_36_3182"/>
</filter>
<filter id="filter23_f_36_3182" x="13.1839" y="10.0846" width="0.300098" height="1.40508" filterUnits="userSpaceOnUse" color-interpolation-filters="sRGB">
<feFlood flood-opacity="0" result="BackgroundImageFix"/>
<feBlend mode="normal" in="SourceGraphic" in2="BackgroundImageFix" result="shape"/>
<feGaussianBlur stdDeviation="0.05" result="effect1_foregroundBlur_36_3182"/>
</filter>
<filter id="filter24_f_36_3182" x="11.6605" y="10.0846" width="0.300098" height="1.40508" filterUnits="userSpaceOnUse" color-interpolation-filters="sRGB">
<feFlood flood-opacity="0" result="BackgroundImageFix"/>
<feBlend mode="normal" in="SourceGraphic" in2="BackgroundImageFix" result="shape"/>
<feGaussianBlur stdDeviation="0.05" result="effect1_foregroundBlur_36_3182"/>
</filter>
<filter id="filter25_f_36_3182" x="11.6605" y="10.0846" width="0.300098" height="1.40508" filterUnits="userSpaceOnUse" color-interpolation-filters="sRGB">
<feFlood flood-opacity="0" result="BackgroundImageFix"/>
<feBlend mode="normal" in="SourceGraphic" in2="BackgroundImageFix" result="shape"/>
<feGaussianBlur stdDeviation="0.05" result="effect1_foregroundBlur_36_3182"/>
</filter>
<filter id="filter26_f_36_3182" x="3.29492" y="5.74268" width="4.49194" height="4.49219" filterUnits="userSpaceOnUse" color-interpolation-filters="sRGB">
<feFlood flood-opacity="0" result="BackgroundImageFix"/>
<feBlend mode="normal" in="SourceGraphic" in2="BackgroundImageFix" result="shape"/>
<feGaussianBlur stdDeviation="0.25" result="effect1_foregroundBlur_36_3182"/>
</filter>
<filter id="filter27_f_36_3182" x="7.90063" y="5.90039" width="4.28906" height="4.28906" filterUnits="userSpaceOnUse" color-interpolation-filters="sRGB">
<feFlood flood-opacity="0" result="BackgroundImageFix"/>
<feBlend mode="normal" in="SourceGraphic" in2="BackgroundImageFix" result="shape"/>
<feGaussianBlur stdDeviation="0.25" result="effect1_foregroundBlur_36_3182"/>
</filter>
<filter id="filter28_f_36_3182" x="3.35034" y="9.74512" width="2.47534" height="2.76758" filterUnits="userSpaceOnUse" color-interpolation-filters="sRGB">
<feFlood flood-opacity="0" result="BackgroundImageFix"/>
<feBlend mode="normal" in="SourceGraphic" in2="BackgroundImageFix" result="shape"/>
<feGaussianBlur stdDeviation="0.375" result="effect1_foregroundBlur_36_3182"/>
</filter>
<filter id="filter29_f_36_3182" x="3.85742" y="9.82031" width="0.702881" height="2.00781" filterUnits="userSpaceOnUse" color-interpolation-filters="sRGB">
<feFlood flood-opacity="0" result="BackgroundImageFix"/>
<feBlend mode="normal" in="SourceGraphic" in2="BackgroundImageFix" result="shape"/>
<feGaussianBlur stdDeviation="0.125" result="effect1_foregroundBlur_36_3182"/>
</filter>
<filter id="filter30_f_36_3182" x="2.29907" y="9.82031" width="0.702881" height="2.00781" filterUnits="userSpaceOnUse" color-interpolation-filters="sRGB">
<feFlood flood-opacity="0" result="BackgroundImageFix"/>
<feBlend mode="normal" in="SourceGraphic" in2="BackgroundImageFix" result="shape"/>
<feGaussianBlur stdDeviation="0.125" result="effect1_foregroundBlur_36_3182"/>
</filter>
<filter id="filter31_f_36_3182" x="4.21152" y="10.0846" width="0.300098" height="1.40508" filterUnits="userSpaceOnUse" color-interpolation-filters="sRGB">
<feFlood flood-opacity="0" result="BackgroundImageFix"/>
<feBlend mode="normal" in="SourceGraphic" in2="BackgroundImageFix" result="shape"/>
<feGaussianBlur stdDeviation="0.05" result="effect1_foregroundBlur_36_3182"/>
</filter>
<filter id="filter32_f_36_3182" x="2.68809" y="10.0846" width="0.300098" height="1.40508" filterUnits="userSpaceOnUse" color-interpolation-filters="sRGB">
<feFlood flood-opacity="0" result="BackgroundImageFix"/>
<feBlend mode="normal" in="SourceGraphic" in2="BackgroundImageFix" result="shape"/>
<feGaussianBlur stdDeviation="0.05" result="effect1_foregroundBlur_36_3182"/>
</filter>
<linearGradient id="paint0_linear_36_3182" x1="3.9821" y1="0.530055" x2="3.9821" y2="15.5001" gradientUnits="userSpaceOnUse">
<stop offset="0.288" stop-color="#F2CC26"/>
<stop offset="0.762" stop-color="#E99E20"/>
<stop offset="0.993" stop-color="#E3821D"/>
<stop offset="1" stop-color="#E3801D"/>
</linearGradient>
<linearGradient id="paint1_linear_36_3182" x1="4.4421" y1="5.92555" x2="0.629598" y2="5.92555" gradientUnits="userSpaceOnUse">
<stop stop-color="#E99E20" stop-opacity="0"/>
<stop offset="0.993" stop-color="#E3821D"/>
<stop offset="1" stop-color="#E3801D"/>
</linearGradient>
<linearGradient id="paint2_linear_36_3182" x1="13.3796" y1="5.92555" x2="15.0981" y2="5.92555" gradientUnits="userSpaceOnUse">
<stop stop-color="#E99E20" stop-opacity="0"/>
<stop offset="0.993" stop-color="#E3821D"/>
<stop offset="1" stop-color="#E3801D"/>
</linearGradient>
<linearGradient id="paint3_linear_36_3182" x1="8.0101" y1="-0.956946" x2="8.0096" y2="15.2616" gradientUnits="userSpaceOnUse">
<stop offset="0.771" stop-color="#F59639" stop-opacity="0"/>
<stop offset="1" stop-color="#FF63C4"/>
</linearGradient>
<linearGradient id="paint4_linear_36_3182" x1="8.0096" y1="5.53105" x2="8.0096" y2="16.1681" gradientUnits="userSpaceOnUse">
<stop offset="0.854" stop-color="white" stop-opacity="0"/>
<stop offset="0.985" stop-color="white"/>
</linearGradient>
<radialGradient id="paint5_radial_36_3182" cx="0" cy="0" r="1" gradientUnits="userSpaceOnUse" gradientTransform="translate(11.0826 2.10905) rotate(55.85) scale(2.69992 5.3352)">
<stop stop-color="#FFA720"/>
<stop offset="0.921" stop-color="#FFA720" stop-opacity="0"/>
</radialGradient>
<linearGradient id="paint6_linear_36_3182" x1="11.7186" y1="4.48192" x2="14.0001" y2="6.82992" gradientUnits="userSpaceOnUse">
<stop stop-color="#FFA720"/>
<stop offset="1" stop-color="#FFA720" stop-opacity="0"/>
</linearGradient>
<linearGradient id="paint7_linear_36_3182" x1="5.30108" y1="5.27378" x2="2.37158" y2="5.00029" gradientUnits="userSpaceOnUse">
<stop offset="0.437" stop-color="#ED8C1B"/>
<stop offset="1" stop-color="#FFB03A"/>
</linearGradient>
<linearGradient id="paint8_linear_36_3182" x1="13.5201" y1="2.44577" x2="13.2221" y2="3.61627" gradientUnits="userSpaceOnUse">
<stop offset="0.286" stop-color="#FFE792"/>
<stop offset="1" stop-color="#FFDD65" stop-opacity="0"/>
</linearGradient>
<linearGradient id="paint9_linear_36_3182" x1="7.87557" y1="10.632" x2="7.53957" y2="11.1785" gradientUnits="userSpaceOnUse">
<stop stop-color="#E3900E"/>
<stop offset="1" stop-color="#EA9D26" stop-opacity="0"/>
</linearGradient>
<radialGradient id="paint10_radial_36_3182" cx="0" cy="0" r="1" gradientUnits="userSpaceOnUse" gradientTransform="translate(8.22298 10.0462) rotate(-153.246) scale(1.05865 1.0649)">
<stop stop-color="#EA088B"/>
<stop offset="1" stop-color="#E61E27"/>
</radialGradient>
<linearGradient id="paint11_linear_36_3182" x1="8.60215" y1="9.82694" x2="7.84015" y2="9.82694" gradientUnits="userSpaceOnUse">
<stop stop-color="white" stop-opacity="0.9"/>
<stop offset="1" stop-color="white" stop-opacity="0"/>
</linearGradient>
<linearGradient id="paint12_linear_36_3182" x1="12.1451" y1="11.5829" x2="14.0121" y2="10.6249" gradientUnits="userSpaceOnUse">
<stop stop-color="#E88105"/>
<stop offset="1" stop-color="#E37D02" stop-opacity="0"/>
</linearGradient>
<linearGradient id="paint13_linear_36_3182" x1="12.1451" y1="12.2548" x2="14.0121" y2="13.2128" gradientUnits="userSpaceOnUse">
<stop offset="0.286" stop-color="#DE7D07"/>
<stop offset="0.818" stop-color="#E37D02" stop-opacity="0"/>
</linearGradient>
<linearGradient id="paint14_linear_36_3182" x1="12.645" y1="11.4376" x2="14.7635" y2="10.3711" gradientUnits="userSpaceOnUse">
<stop offset="0.751" stop-color="#D64A38"/>
<stop offset="1" stop-color="#FB7425"/>
</linearGradient>
<linearGradient id="paint15_linear_36_3182" x1="12.537" y1="12.3193" x2="14.912" y2="13.4883" gradientUnits="userSpaceOnUse">
<stop offset="0.792" stop-color="#D64A38"/>
<stop offset="1" stop-color="#FB7425"/>
</linearGradient>
<linearGradient id="paint16_linear_36_3182" x1="3.50903" y1="12.3257" x2="1.01353" y2="13.5742" gradientUnits="userSpaceOnUse">
<stop offset="0.752" stop-color="#D64A38"/>
<stop offset="1" stop-color="#FB7425"/>
</linearGradient>
<linearGradient id="paint17_linear_36_3182" x1="3.40904" y1="11.4296" x2="1.36404" y2="10.4711" gradientUnits="userSpaceOnUse">
<stop offset="0.665" stop-color="#D64A38"/>
<stop offset="1" stop-color="#FB7425"/>
</linearGradient>
<linearGradient id="paint18_linear_36_3182" x1="11.676" y1="5.38412" x2="11.478" y2="11.4096" gradientUnits="userSpaceOnUse">
<stop offset="0.548" stop-color="#FFDD65"/>
<stop offset="1" stop-color="#FFDD65" stop-opacity="0"/>
</linearGradient>
<linearGradient id="paint19_linear_36_3182" x1="13.2701" y1="7.71928" x2="12.6451" y2="5.98478" gradientUnits="userSpaceOnUse">
<stop stop-color="#EF8A47"/>
<stop offset="1" stop-color="#EF8A47" stop-opacity="0"/>
</linearGradient>
<radialGradient id="paint20_radial_36_3182" cx="0" cy="0" r="1" gradientUnits="userSpaceOnUse" gradientTransform="translate(11.4341 3.85144) rotate(55.7389) scale(3.91343 4.69212)">
<stop stop-color="#FFDF70"/>
<stop offset="1" stop-color="#FFDF70" stop-opacity="0"/>
</radialGradient>
<linearGradient id="paint21_linear_36_3182" x1="12.5275" y1="5.20288" x2="12.5275" y2="6.37488" gradientUnits="userSpaceOnUse">
<stop offset="0.432" stop-color="#FFE7A3"/>
<stop offset="1" stop-color="#FFDF83" stop-opacity="0"/>
</linearGradient>
<linearGradient id="paint22_linear_36_3182" x1="11.1541" y1="13.469" x2="7.60259" y2="15.229" gradientUnits="userSpaceOnUse">
<stop stop-color="#DA7600"/>
<stop offset="1" stop-color="#DA8400" stop-opacity="0"/>
</linearGradient>
<linearGradient id="paint23_linear_36_3182" x1="14.4786" y1="15.2015" x2="10.4941" y2="15.2015" gradientUnits="userSpaceOnUse">
<stop offset="0.161" stop-color="#F2CC26"/>
<stop offset="0.642" stop-color="#E99E20"/>
<stop offset="0.993" stop-color="#E3821D"/>
<stop offset="1" stop-color="#E3801D"/>
</linearGradient>
<linearGradient id="paint24_linear_36_3182" x1="14.4786" y1="15.2015" x2="10.4941" y2="15.2815" gradientUnits="userSpaceOnUse">
<stop offset="0.866" stop-color="#E3821D" stop-opacity="0"/>
<stop offset="1" stop-color="#D37516"/>
</linearGradient>
<linearGradient id="paint25_linear_36_3182" x1="13.3106" y1="15.2015" x2="17.4046" y2="15.2015" gradientUnits="userSpaceOnUse">
<stop stop-color="#E99E20" stop-opacity="0"/>
<stop offset="1" stop-color="#E99E20"/>
</linearGradient>
<linearGradient id="paint26_linear_36_3182" x1="11.8926" y1="10.9999" x2="11.4121" y2="10.9999" gradientUnits="userSpaceOnUse">
<stop stop-color="#FFB445"/>
<stop offset="1" stop-color="#E9A239" stop-opacity="0.922"/>
</linearGradient>
<linearGradient id="paint27_linear_36_3182" x1="11.1701" y1="11.0544" x2="11.8106" y2="11.0154" gradientUnits="userSpaceOnUse">
<stop offset="0.367" stop-color="#D6850E"/>
<stop offset="1" stop-color="#CC861F" stop-opacity="0"/>
</linearGradient>
<linearGradient id="paint28_linear_36_3182" x1="11.7246" y1="12.1094" x2="11.7246" y2="11.3239" gradientUnits="userSpaceOnUse">
<stop stop-color="#FF91B9"/>
<stop offset="1" stop-color="#FD679E" stop-opacity="0"/>
</linearGradient>
<linearGradient id="paint29_linear_36_3182" x1="13.4161" y1="10.9999" x2="12.9356" y2="10.9999" gradientUnits="userSpaceOnUse">
<stop stop-color="#FFB445"/>
<stop offset="1" stop-color="#E9A239" stop-opacity="0.922"/>
</linearGradient>
<linearGradient id="paint30_linear_36_3182" x1="12.7166" y1="11.0234" x2="13.1856" y2="11.0234" gradientUnits="userSpaceOnUse">
<stop offset="0.367" stop-color="#D6850E"/>
<stop offset="1" stop-color="#CC861F" stop-opacity="0"/>
</linearGradient>
<linearGradient id="paint31_linear_36_3182" x1="13.2481" y1="12.1094" x2="13.2481" y2="11.3239" gradientUnits="userSpaceOnUse">
<stop stop-color="#FF91B9"/>
<stop offset="1" stop-color="#FD679E" stop-opacity="0"/>
</linearGradient>
<linearGradient id="paint32_linear_36_3182" x1="-nan" y1="-nan" x2="-nan" y2="-nan" gradientUnits="userSpaceOnUse">
<stop stop-color="#FFC270"/>
<stop offset="0.77" stop-color="#FFE2BB" stop-opacity="0"/>
</linearGradient>
<linearGradient id="paint33_linear_36_3182" x1="-nan" y1="-nan" x2="-nan" y2="-nan" gradientUnits="userSpaceOnUse">
<stop stop-color="#FFC270"/>
<stop offset="0.77" stop-color="#FFE2BB" stop-opacity="0"/>
</linearGradient>
<linearGradient id="paint34_linear_36_3182" x1="-nan" y1="-nan" x2="-nan" y2="-nan" gradientUnits="userSpaceOnUse">
<stop stop-color="#FFC270"/>
<stop offset="0.77" stop-color="#FFE2BB" stop-opacity="0"/>
</linearGradient>
<linearGradient id="paint35_linear_36_3182" x1="8.37092" y1="8.79818" x2="9.03442" y2="13.1507" gradientUnits="userSpaceOnUse">
<stop stop-color="#CF8209"/>
<stop offset="1" stop-color="#C88216" stop-opacity="0"/>
</linearGradient>
<linearGradient id="paint36_linear_36_3182" x1="12.7106" y1="8.80789" x2="13.3351" y2="12.9069" gradientUnits="userSpaceOnUse">
<stop stop-color="#CF8209"/>
<stop offset="1" stop-color="#C88216" stop-opacity="0"/>
</linearGradient>
<radialGradient id="paint37_radial_36_3182" cx="0" cy="0" r="1" gradientUnits="userSpaceOnUse" gradientTransform="translate(8.00006 14.25) rotate(-90) scale(2.95746 4.68535)">
<stop stop-color="#F70A8D"/>
<stop offset="1" stop-color="#89029C"/>
</radialGradient>
<linearGradient id="paint38_linear_36_3182" x1="5.50598" y1="15.2015" x2="1.52148" y2="15.2015" gradientUnits="userSpaceOnUse">
<stop offset="0.161" stop-color="#F2CC26"/>
<stop offset="0.642" stop-color="#E99E20"/>
<stop offset="0.993" stop-color="#E3821D"/>
<stop offset="1" stop-color="#E3801D"/>
</linearGradient>
<linearGradient id="paint39_linear_36_3182" x1="5.50598" y1="15.2015" x2="1.52148" y2="15.2815" gradientUnits="userSpaceOnUse">
<stop offset="0.866" stop-color="#E3821D" stop-opacity="0"/>
<stop offset="1" stop-color="#D37516"/>
</linearGradient>
<linearGradient id="paint40_linear_36_3182" x1="4.33798" y1="15.2015" x2="8.43148" y2="15.2015" gradientUnits="userSpaceOnUse">
<stop stop-color="#E99E20" stop-opacity="0"/>
<stop offset="1" stop-color="#E99E20"/>
</linearGradient>
<linearGradient id="paint41_linear_36_3182" x1="2.91998" y1="10.9999" x2="2.43948" y2="10.9999" gradientUnits="userSpaceOnUse">
<stop stop-color="#FFB445"/>
<stop offset="1" stop-color="#E9A239" stop-opacity="0.922"/>
</linearGradient>
<linearGradient id="paint42_linear_36_3182" x1="2.19698" y1="11.0544" x2="2.83798" y2="11.0154" gradientUnits="userSpaceOnUse">
<stop offset="0.367" stop-color="#D6850E"/>
<stop offset="1" stop-color="#CC861F" stop-opacity="0"/>
</linearGradient>
<linearGradient id="paint43_linear_36_3182" x1="2.75198" y1="12.1094" x2="2.75198" y2="11.3239" gradientUnits="userSpaceOnUse">
<stop stop-color="#FF91B9"/>
<stop offset="1" stop-color="#FD679E" stop-opacity="0"/>
</linearGradient>
<linearGradient id="paint44_linear_36_3182" x1="4.44342" y1="10.9999" x2="3.96292" y2="10.9999" gradientUnits="userSpaceOnUse">
<stop stop-color="#FFB445"/>
<stop offset="1" stop-color="#E9A239" stop-opacity="0.922"/>
</linearGradient>
<linearGradient id="paint45_linear_36_3182" x1="3.74392" y1="11.0234" x2="4.21292" y2="11.0234" gradientUnits="userSpaceOnUse">
<stop offset="0.367" stop-color="#D6850E"/>
<stop offset="1" stop-color="#CC861F" stop-opacity="0"/>
</linearGradient>
<linearGradient id="paint46_linear_36_3182" x1="4.27542" y1="12.1094" x2="4.27542" y2="11.3239" gradientUnits="userSpaceOnUse">
<stop stop-color="#FF91B9"/>
<stop offset="1" stop-color="#FD679E" stop-opacity="0"/>
</linearGradient>
<linearGradient id="paint47_linear_36_3182" x1="-nan" y1="-nan" x2="-nan" y2="-nan" gradientUnits="userSpaceOnUse">
<stop stop-color="#FFC270"/>
<stop offset="0.77" stop-color="#FFE2BB" stop-opacity="0"/>
</linearGradient>
<linearGradient id="paint48_linear_36_3182" x1="-nan" y1="-nan" x2="-nan" y2="-nan" gradientUnits="userSpaceOnUse">
<stop stop-color="#FFC270"/>
<stop offset="0.77" stop-color="#FFE2BB" stop-opacity="0"/>
</linearGradient>
</defs>
</svg>
