<svg width="16" height="16" viewBox="0 0 16 16" fill="none" xmlns="http://www.w3.org/2000/svg">
<g clip-path="url(#clip0_36_3158)">
<path d="M3.525 11.55C2 11.425 0.75 9.5 0.75 9.5C0.75 11.875 2.85 12.75 3.8 12.425C4.65 12.15 3.525 11.55 3.525 11.55Z" fill="#947151"/>
<path d="M10.325 13.9999C10.75 14.4999 12.7 13.9999 13.025 13.4249C14.3 11.0499 13.025 9.5249 13.025 9.5249L10.325 10.3499C10.325 10.3749 9.77501 13.3749 10.325 13.9999Z" fill="#EABC92"/>
<path d="M8.50003 15.1C8.97503 15.65 10.7 15.625 11.2 15.1C11.95 14.35 11.9 10.925 11.95 9.275L8.77503 9C8.77503 9 7.90003 14.375 8.50003 15.1Z" fill="#F5D1AC"/>
<path d="M6.67511 13.9999C6.25011 14.4999 4.30011 13.9999 3.97511 13.4249C2.70011 11.0499 3.97511 9.5249 3.97511 9.5249L6.67511 10.3499C6.67511 10.3749 7.25011 13.3749 6.67511 13.9999Z" fill="#EABC92"/>
<path d="M8.52495 15.1C8.04995 15.65 6.32495 15.625 5.82495 15.1C5.07495 14.35 5.12495 10.925 5.07495 9.275L8.24995 9C8.24995 9 9.12495 14.375 8.52495 15.1Z" fill="#F5D1AC"/>
<path d="M8.4999 15.1251C8.4249 14.6001 8.3999 14.0751 8.3999 13.5501C8.3999 13.0251 8.4249 12.5001 8.4999 11.9751C8.5749 12.5001 8.5999 13.0251 8.5999 13.5501C8.5999 14.0751 8.5749 14.6001 8.4999 15.1251Z" fill="#423223"/>
<path d="M8.4999 11.625C5.9499 11.625 4.6499 10.625 4.6499 10.625C4.6499 10.625 5.4999 12.9 8.4999 12.9C11.4999 12.9 12.3499 10.625 12.3499 10.625C12.3499 10.625 11.0499 11.625 8.4999 11.625Z" fill="#3E4347"/>
<path d="M7.7749 12.2499C7.7749 11.8999 7.9249 11.6249 8.0999 11.5999C8.0499 11.5499 7.9749 11.5249 7.9249 11.5249C7.6999 11.5249 7.5249 11.8499 7.5249 12.2499C7.5249 12.6499 7.6999 12.9749 7.9249 12.9749C7.9999 12.9749 8.0499 12.9249 8.0999 12.8749C7.9249 12.8749 7.7749 12.5999 7.7749 12.2499Z" fill="white"/>
<path d="M4.87496 10.75C3.34996 9.8 2.74996 6.075 3.24996 4.4C3.62496 3.15 4.99996 1.3 6.24996 0.8C7.29996 0.4 9.72496 0.4 10.775 0.8C12.025 1.275 13.425 3.125 13.775 4.4C14.275 6.1 13.9 9.8 12.375 10.75C9.17496 12.75 8.07496 12.75 4.87496 10.75Z" fill="#F5D1AC"/>
<path d="M2.47498 4.7748C3.27498 6.4998 3.47498 6.5748 4.24998 4.5248C4.64998 3.4248 4.37498 2.7748 4.84998 2.0748C5.12498 1.6748 5.72498 1.0498 5.72498 1.0498C5.72498 1.0498 0.924978 1.5248 2.47498 4.7748Z" fill="#423223"/>
<path d="M4.50005 0.975125C3.30005 1.72512 0.725046 1.42512 2.25005 4.67512C3.05005 6.40012 3.25005 6.47512 4.02505 4.42512C4.42505 3.32512 4.15005 2.67512 4.62505 1.97512C4.90005 1.57512 5.72505 1.05012 5.72505 1.05012C5.72505 1.05012 5.35005 0.450125 4.50005 0.975125Z" fill="#947151"/>
<path d="M14.55 4.7748C13.75 6.4998 13.55 6.5748 12.775 4.5248C12.375 3.4248 12.65 2.7748 12.175 2.0748C11.9 1.6748 11.3 1.0498 11.3 1.0498C11.3 1.0498 16.1 1.5248 14.55 4.7748Z" fill="#423223"/>
<path d="M12.525 0.975125C13.725 1.72512 16.325 1.42512 14.8 4.67512C14 6.40012 13.8 6.47512 13.025 4.42512C12.625 3.32512 12.9 2.67512 12.425 1.97512C12.15 1.57512 11.325 1.05012 11.325 1.05012C11.325 1.05012 11.675 0.450125 12.525 0.975125Z" fill="#947151"/>
<path d="M5.29995 4.7998C6.04995 4.7998 6.64995 5.3748 6.64995 6.0998C6.64995 6.8248 6.04995 7.3998 5.29995 7.3998C4.54995 7.3998 3.94995 6.8248 3.94995 6.0998C3.94995 5.3748 4.57495 4.7998 5.29995 4.7998Z" fill="white"/>
<path d="M4.9751 7.075C5.52738 7.075 5.9751 6.63848 5.9751 6.1C5.9751 5.56152 5.52738 5.125 4.9751 5.125C4.42281 5.125 3.9751 5.56152 3.9751 6.1C3.9751 6.63848 4.42281 7.075 4.9751 7.075Z" fill="#3E4347"/>
<path d="M13.0501 6.0998C13.0501 6.8248 12.4501 7.3998 11.7001 7.3998C10.9501 7.3998 10.3501 6.8248 10.3501 6.0998C10.3501 5.3748 10.9501 4.7998 11.7001 4.7998C12.4501 4.7998 13.0501 5.3748 13.0501 6.0998Z" fill="white"/>
<path d="M12.05 7.075C12.6023 7.075 13.05 6.63848 13.05 6.1C13.05 5.56152 12.6023 5.125 12.05 5.125C11.4978 5.125 11.05 5.56152 11.05 6.1C11.05 6.63848 11.4978 7.075 12.05 7.075Z" fill="#3E4347"/>
<path d="M6.19995 10.0252L7.24995 11.0752C7.87495 11.7002 9.17495 11.7002 9.79995 11.0752L10.85 10.0252L9.74995 8.9502H7.27495L6.19995 10.0252Z" fill="#7D644B"/>
<path d="M8.49994 8.0249C8.49994 8.0249 7.39994 9.5499 7.54994 10.2749C7.72494 11.3249 9.29994 11.3249 9.47494 10.2749C9.59994 9.5499 8.49994 8.0249 8.49994 8.0249Z" fill="#F15A61"/>
<path d="M8.4999 10.6752L8.7499 9.2002H8.2749L8.4999 10.6752Z" fill="#BA454B"/>
<path d="M7.375 8.4502H9.625V9.4502H7.375V8.4502Z" fill="#423223"/>
<path d="M12.075 8.6751L10.475 7.0501C9.49995 6.0751 7.52495 6.0751 6.57495 7.0501L4.97495 8.6751C4.52495 9.1251 4.52495 9.8751 4.97495 10.3501C5.42495 10.8001 6.17495 10.8001 6.62495 10.3501L8.22495 8.7251C8.37495 8.5751 8.67495 8.5751 8.82495 8.7251L10.425 10.3501C10.875 10.8001 11.625 10.8001 12.075 10.3501C12.525 9.9001 12.525 9.1501 12.075 8.6751Z" fill="#947151"/>
<path d="M7.1749 7.175C7.1749 6.6 7.7749 6.5 8.4999 6.5C9.2249 6.5 9.8249 6.6 9.8249 7.175C9.8249 7.625 8.7749 8.025 8.4999 8.025C8.2499 8.025 7.1749 7.625 7.1749 7.175ZM6.7749 7.675L6.5499 7.9L6.7749 8.125L6.9999 7.9L6.7749 7.675ZM6.2499 8.275L6.0249 8.5L6.2499 8.725L6.4749 8.5L6.2499 8.275ZM6.9499 8.5L6.7249 8.725L6.9499 8.95L7.1749 8.725L6.9499 8.5ZM10.2499 7.675L10.4749 7.9L10.2499 8.125L10.0249 7.9L10.2499 7.675ZM10.7749 8.275L10.9999 8.5L10.7749 8.725L10.5499 8.5L10.7749 8.275ZM10.0749 8.5L10.2999 8.725L10.0749 8.95L9.8499 8.725L10.0749 8.5Z" fill="#3E4347"/>
</g>
<defs>
<clipPath id="clip0_36_3158">
<rect width="16" height="16" fill="white"/>
</clipPath>
</defs>
</svg>
