<svg width="67" height="67" viewBox="0 0 67 67" fill="none" xmlns="http://www.w3.org/2000/svg">
<g filter="url(#filter0_dd_24_3318)">
<mask id="path-1-outside-1_24_3318" maskUnits="userSpaceOnUse" x="4" y="0" width="59" height="59" fill="black">
<rect fill="white" x="4" width="59" height="59"/>
<path d="M11 30C11 15.6406 22.6406 4 37 4V4C51.3594 4 63 15.6406 63 30V30C63 44.3594 51.3594 56 37 56V56C22.6406 56 11 44.3594 11 30V30Z"/>
</mask>
<path d="M4 29.5C4 13.2076 17.2076 0 33.5 0C49.7924 0 63 13.2076 63 29.5V30C63 17.8497 51.3594 8 37 8C26.5066 8 18 17.8497 18 30L4 29.5ZM63 30C63 46.0163 50.0163 59 34 59H33C16.9837 59 4 46.0163 4 30H18C18 42.7025 26.5066 53 37 53C51.3594 53 63 42.7025 63 30ZM33 59C16.9837 59 4 46.0163 4 30V29.5C4 13.2076 17.2076 0 33.5 0L37 8C26.5066 8 18 17.8497 18 30C18 42.7025 26.5066 53 37 53L33 59ZM63 4V56V4Z" fill="#F75D5D" mask="url(#path-1-outside-1_24_3318)"/>
<path d="M35.7791 27.2548C35.5165 27.2547 35.2592 27.329 35.0371 27.4692C34.8151 27.6094 34.6373 27.8097 34.5245 28.0469C34.4116 28.284 34.3683 28.5483 34.3996 28.809C34.4309 29.0698 34.5354 29.3163 34.7012 29.52L36.9274 32.1341L39.132 29.546L39.1428 29.5341L39.1537 29.52C39.2748 29.3749 39.3651 29.2066 39.419 29.0254C39.4729 28.8442 39.4893 28.6539 39.4671 28.4662C39.4449 28.2784 39.3847 28.0972 39.2901 27.9335C39.1955 27.7699 39.0684 27.6272 38.9168 27.5143C38.7652 27.4014 38.5921 27.3206 38.4082 27.2769C38.2243 27.2332 38.0334 27.2275 37.8471 27.2601C37.6609 27.2927 37.4833 27.3629 37.3252 27.4665C37.167 27.5701 37.0317 27.7048 36.9274 27.8625C36.8003 27.6757 36.6294 27.5227 36.4296 27.417C36.2299 27.3112 36.0073 27.2559 35.7812 27.2559L35.7791 27.2548Z" stroke="#DC0C74" stroke-width="0.5" stroke-linecap="round" stroke-linejoin="round"/>
<path d="M52.0096 28.6567C52.0096 28.9275 51.902 29.1872 51.7105 29.3786C51.519 29.5701 51.2593 29.6777 50.9885 29.6777C50.7177 29.6777 50.458 29.5701 50.2665 29.3786C50.075 29.1872 49.9675 28.9275 49.9675 28.6567C49.9675 28.3859 50.075 28.1262 50.2665 27.9347C50.458 27.7432 50.7177 27.6356 50.9885 27.6356C51.2593 27.6356 51.519 27.7432 51.7105 27.9347C51.902 28.1262 52.0096 28.3859 52.0096 28.6567ZM46.906 28.6567C46.906 28.9275 46.7984 29.1872 46.6069 29.3786C46.4154 29.5701 46.1557 29.6777 45.8849 29.6777C45.6141 29.6777 45.3544 29.5701 45.1629 29.3786C44.9715 29.1872 44.8639 28.9275 44.8639 28.6567C44.8639 28.3859 44.9715 28.1262 45.1629 27.9347C45.3544 27.7432 45.6141 27.6356 45.8849 27.6356C46.1557 27.6356 46.4154 27.7432 46.6069 27.9347C46.7984 28.1262 46.906 28.3859 46.906 28.6567Z" stroke="#2595FE" stroke-width="0.5" stroke-linecap="round" stroke-linejoin="round"/>
<path d="M41.5468 32.7386H44.098M41.5468 31.2079H44.098M52.7744 32.7386H55.3268M52.7744 31.2079H55.3268M48.4368 32.2273V30.8948M48.4368 32.2273L47.6308 33.2272M48.4368 32.2273L47.27 31.495M48.4368 32.2273L49.2417 33.2272M48.4368 32.2273L49.6035 31.495M44.3526 37.7046C44.1974 37.7941 44.0215 37.8412 43.8424 37.8411C43.6633 37.8411 43.4874 37.7939 43.3323 37.7043C43.1772 37.6147 43.0484 37.4859 42.9589 37.3308C42.8694 37.1757 42.8222 36.9997 42.8222 36.8206C42.8222 36.6415 42.8694 36.4656 42.9589 36.3105C43.0484 36.1554 43.1772 36.0266 43.3323 35.937C43.4874 35.8474 43.6633 35.8002 43.8424 35.8001C44.0215 35.8001 44.1974 35.8472 44.3526 35.9366M49.9643 37.7046C49.8091 37.7941 49.6332 37.8412 49.4541 37.8411C49.275 37.8411 49.099 37.7939 48.9439 37.7043C48.7889 37.6147 48.6601 37.4859 48.5706 37.3308C48.481 37.1757 48.4339 36.9997 48.4339 36.8206C48.4339 36.6415 48.481 36.4656 48.5706 36.3105C48.6601 36.1554 48.7889 36.0266 48.9439 35.937C49.099 35.8474 49.275 35.8002 49.4541 35.8001C49.6332 35.8001 49.8091 35.8472 49.9643 35.9366M45.372 37.8401H47.4141M50.9858 37.8401H53.0268M54.0463 37.8401H56.0883M57.1088 32.6823C57.1088 32.6823 58.125 33.8382 58.125 35.2606C58.125 36.6831 57.1088 37.839 57.1088 37.839M42.8229 21.511L46.906 25.5941H49.9675L54.0517 21.5099V34.7807H42.8218L42.8229 21.511Z" stroke="#2595FE" stroke-width="0.5" stroke-linecap="round" stroke-linejoin="round"/>
<path d="M20.6492 21.8284C23.7476 21.8284 26.0789 24.3071 26.0789 27.3642V28.1529H15.8793V27.3632C15.8793 24.3071 17.5509 21.8284 20.6503 21.8284H20.6492ZM25.4939 21.0018L23.9014 22.8522ZM16.1513 21.0018L17.6831 22.8522Z" fill="#A0FD98"/>
<path d="M25.4939 21.0018L23.9014 22.8522M16.1513 21.0018L17.6831 22.8522M20.6492 21.8284C23.7476 21.8284 26.0789 24.3071 26.0789 27.3642V28.1529H15.8793V27.3632C15.8793 24.3071 17.5509 21.8284 20.6503 21.8284H20.6492Z" stroke="black" stroke-width="0.5" stroke-linecap="round" stroke-linejoin="round"/>
<path d="M20.139 25.6016C20.139 25.8724 20.0314 26.1321 19.8399 26.3236C19.6485 26.5151 19.3888 26.6227 19.118 26.6227C18.8472 26.6227 18.5875 26.5151 18.396 26.3236C18.2045 26.1321 18.0969 25.8724 18.0969 25.6016C18.0969 25.3308 18.2045 25.0711 18.396 24.8796C18.5875 24.6881 18.8472 24.5806 19.118 24.5806C19.3888 24.5806 19.6485 24.6881 19.8399 24.8796C20.0314 25.0711 20.139 25.3308 20.139 25.6016ZM24.2221 25.6016C24.2221 25.8724 24.1145 26.1321 23.923 26.3236C23.7315 26.5151 23.4718 26.6227 23.201 26.6227C22.9302 26.6227 22.6705 26.5151 22.4791 26.3236C22.2876 26.1321 22.18 25.8724 22.18 25.6016C22.18 25.3308 22.2876 25.0711 22.4791 24.8796C22.6705 24.6881 22.9302 24.5806 23.201 24.5806C23.4718 24.5806 23.7315 24.6881 23.923 24.8796C24.1145 25.0711 24.2221 25.3308 24.2221 25.6016ZM26.0832 32.4873H28.6345ZM26.0832 30.9565H28.6345ZM15.875 28.1496H26.0822V36.8249H15.875V28.1496Z" fill="#A0FD98"/>
<path d="M26.0832 32.4873H28.6345M26.0832 30.9565H28.6345M20.139 25.6016C20.139 25.8724 20.0314 26.1321 19.8399 26.3236C19.6485 26.5151 19.3888 26.6227 19.118 26.6227C18.8472 26.6227 18.5875 26.5151 18.396 26.3236C18.2045 26.1321 18.0969 25.8724 18.0969 25.6016C18.0969 25.3308 18.2045 25.0711 18.396 24.8796C18.5875 24.6881 18.8472 24.5806 19.118 24.5806C19.3888 24.5806 19.6485 24.6881 19.8399 24.8796C20.0314 25.0711 20.139 25.3308 20.139 25.6016ZM24.2221 25.6016C24.2221 25.8724 24.1145 26.1321 23.923 26.3236C23.7315 26.5151 23.4718 26.6227 23.201 26.6227C22.9302 26.6227 22.6705 26.5151 22.4791 26.3236C22.2876 26.1321 22.18 25.8724 22.18 25.6016C22.18 25.3308 22.2876 25.0711 22.4791 24.8796C22.6705 24.6881 22.9302 24.5806 23.201 24.5806C23.4718 24.5806 23.7315 24.6881 23.923 24.8796C24.1145 25.0711 24.2221 25.3308 24.2221 25.6016ZM15.875 28.1496H26.0822V36.8249H15.875V28.1496Z" stroke="black" stroke-width="0.5" stroke-linecap="round" stroke-linejoin="round"/>
<path d="M19.2398 38.1857C19.2398 38.4012 19.1542 38.6078 19.0018 38.7602C18.8495 38.9126 18.6428 38.9982 18.4273 38.9982C18.2118 38.9982 18.0052 38.9126 17.8528 38.7602C17.7004 38.6078 17.6148 38.4012 17.6148 38.1857C17.6148 37.9702 17.7004 37.7635 17.8528 37.6111C18.0052 37.4588 18.2118 37.3732 18.4273 37.3732C18.6428 37.3732 18.8495 37.4588 19.0018 37.6111C19.1542 37.7635 19.2398 37.9702 19.2398 38.1857ZM24.3434 38.1857C24.3434 38.2924 24.3224 38.398 24.2815 38.4966C24.2407 38.5952 24.1809 38.6847 24.1054 38.7602C24.03 38.8356 23.9404 38.8955 23.8418 38.9363C23.7432 38.9772 23.6376 38.9982 23.5309 38.9982C23.4242 38.9982 23.3185 38.9772 23.22 38.9363C23.1214 38.8955 23.0318 38.8356 22.9564 38.7602C22.8809 38.6847 22.8211 38.5952 22.7802 38.4966C22.7394 38.398 22.7184 38.2924 22.7184 38.1857C22.7184 37.9702 22.804 37.7635 22.9564 37.6111C23.1087 37.4588 23.3154 37.3732 23.5309 37.3732C23.7464 37.3732 23.953 37.4588 24.1054 37.6111C24.2578 37.7635 24.3434 37.9702 24.3434 38.1857Z" fill="#6EBF67"/>
<path d="M31.3396 32.3942V32.4104C31.3396 33.1579 30.734 33.7624 29.9876 33.7624C29.2401 33.7624 28.6345 33.1568 28.6345 32.4104V31.0324C28.6345 30.2849 29.2401 29.6793 29.9876 29.6793C30.7351 29.6793 31.3396 30.286 31.3396 31.0324V31.0487" fill="#A0FD98"/>
<path d="M31.3396 32.3942V32.4104C31.3396 33.1579 30.734 33.7624 29.9876 33.7624C29.2401 33.7624 28.6345 33.1568 28.6345 32.4104V31.0324C28.6345 30.2849 29.2401 29.6793 29.9876 29.6793C30.7351 29.6793 31.3396 30.286 31.3396 31.0324V31.0487" stroke="black" stroke-width="0.5" stroke-linecap="round" stroke-linejoin="round"/>
</g>
<defs>
<filter id="filter0_dd_24_3318" x="0" y="0" width="67" height="67" filterUnits="userSpaceOnUse" color-interpolation-filters="sRGB">
<feFlood flood-opacity="0" result="BackgroundImageFix"/>
<feColorMatrix in="SourceAlpha" type="matrix" values="0 0 0 0 0 0 0 0 0 0 0 0 0 0 0 0 0 0 127 0" result="hardAlpha"/>
<feOffset dy="4"/>
<feGaussianBlur stdDeviation="2"/>
<feComposite in2="hardAlpha" operator="out"/>
<feColorMatrix type="matrix" values="0 0 0 0 0 0 0 0 0 0 0 0 0 0 0 0 0 0 0.25 0"/>
<feBlend mode="normal" in2="BackgroundImageFix" result="effect1_dropShadow_24_3318"/>
<feColorMatrix in="SourceAlpha" type="matrix" values="0 0 0 0 0 0 0 0 0 0 0 0 0 0 0 0 0 0 127 0" result="hardAlpha"/>
<feOffset dy="4"/>
<feGaussianBlur stdDeviation="2"/>
<feComposite in2="hardAlpha" operator="out"/>
<feColorMatrix type="matrix" values="0 0 0 0 0 0 0 0 0 0 0 0 0 0 0 0 0 0 0.25 0"/>
<feBlend mode="normal" in2="effect1_dropShadow_24_3318" result="effect2_dropShadow_24_3318"/>
<feBlend mode="normal" in="SourceGraphic" in2="effect2_dropShadow_24_3318" result="shape"/>
</filter>
</defs>
</svg>
