<svg width="24" height="24" viewBox="0 0 24 24" fill="none" xmlns="http://www.w3.org/2000/svg">
<path d="M2 2L22 22M4 11C4 13.1217 4.84285 15.1566 6.34315 16.6569C7.84344 18.1571 9.87827 19 12 19M12 19C13.954 19 15.745 18.3 17.135 17.135M12 19V22M12 22H15M12 22H9M20 11C20 12.651 19.5 14.186 18.642 15.46M7.008 6.996V11.016C7.008 12.3421 7.53478 13.6139 8.47247 14.5515C9.41015 15.4892 10.6819 16.016 12.008 16.016C13.143 16.016 14.173 15.626 15.012 14.988M16.447 13.26C16.805 12.57 17.007 11.847 17.007 11.016V6.996C17.007 4.234 14.769 2.016 12.007 2.016C10.139 2.016 8.537 2.981 7.68 4.5" stroke="black" stroke-width="1.5" stroke-linecap="round" stroke-linejoin="round"/>
</svg>
