<svg width="33" height="33" viewBox="0 0 33 33" fill="none" xmlns="http://www.w3.org/2000/svg">
<path d="M7.65462 10.3442C8.0575 8.86056 9.5535 5.146 10.6672 5.146C12.0037 5.146 13.4888 8.52437 13.4888 8.52437M3.20513 17.0631L6.57112 18.1892M3.90431 23.78L6.69487 22.0626M3.09375 20.2559H6.69487" stroke="black" stroke-width="0.5" stroke-linecap="round" stroke-linejoin="round"/>
<path d="M11.8181 18.5859C12.6128 18.5859 13.257 17.9416 13.257 17.1469C13.257 16.3522 12.6128 15.708 11.8181 15.708C11.0234 15.708 10.3792 16.3522 10.3792 17.1469C10.3792 17.9416 11.0234 18.5859 11.8181 18.5859Z" stroke="black" stroke-width="0.5" stroke-linecap="round" stroke-linejoin="round"/>
<path d="M16.5 27.8547H19.1029C27.2456 27.8547 27.8396 21.4932 27.8396 19.1172V16.7474C27.8396 9.07972 21.9987 8.5249 18.731 8.5249H14.2691C11.0014 8.5249 5.1604 9.07903 5.1604 16.7474V19.1179C5.1604 21.4939 5.7544 27.8547 13.8972 27.8547H16.5Z" stroke="black" stroke-width="0.5" stroke-linecap="round" stroke-linejoin="round"/>
<path d="M25.3454 10.3442C24.9425 8.86056 23.4465 5.146 22.3327 5.146C20.9962 5.146 19.5112 8.52437 19.5112 8.52437M29.7949 17.0631L26.4289 18.1892M29.0957 23.78L26.3051 22.0626M29.9062 20.2559H26.3051" stroke="black" stroke-width="0.5" stroke-linecap="round" stroke-linejoin="round"/>
<path d="M21.1819 18.5859C21.9766 18.5859 22.6208 17.9416 22.6208 17.1469C22.6208 16.3522 21.9766 15.708 21.1819 15.708C20.3872 15.708 19.7429 16.3522 19.7429 17.1469C19.7429 17.9416 20.3872 18.5859 21.1819 18.5859Z" stroke="black" stroke-width="0.5" stroke-linecap="round" stroke-linejoin="round"/>
<path d="M16.9235 20.6092L18.106 19.0376C18.1654 18.9589 18.2017 18.8653 18.2107 18.7672C18.2197 18.669 18.2012 18.5703 18.1572 18.4821C18.1132 18.394 18.0454 18.3198 17.9616 18.2681C17.8777 18.2163 17.7811 18.189 17.6825 18.1892H15.3175C15.219 18.189 15.1223 18.2163 15.0385 18.2681C14.9546 18.3198 14.8869 18.394 14.8428 18.4821C14.7988 18.5703 14.7803 18.669 14.7893 18.7672C14.7984 18.8653 14.8346 18.9589 14.894 19.0376L16.0765 20.6092C16.1258 20.675 16.1898 20.7283 16.2633 20.7651C16.3368 20.8018 16.4178 20.821 16.5 20.821C16.5822 20.821 16.6633 20.8018 16.7368 20.7651C16.8103 20.7283 16.8742 20.675 16.9235 20.6092Z" stroke="black" stroke-width="0.5" stroke-linecap="round" stroke-linejoin="round"/>
</svg>
