<svg width="117" height="112" viewBox="0 0 117 112" fill="none" xmlns="http://www.w3.org/2000/svg">
<path d="M54.5123 25.1706C60.6083 29.5805 66.0126 22.2372 65.1549 15.0822C64.8506 12.6146 63.9837 10.3551 62.5265 8.63072C60.1472 5.79645 55.1856 5.49915 53.378 8.49198C50.4453 13.3083 49.2464 21.3552 54.5123 25.1706ZM37.7461 19.2939C44.2479 22.9012 49.0343 14.8542 47.5495 7.78837C47.0422 5.37032 45.9725 3.20993 44.3678 1.67388C41.7394 -0.863092 36.7593 -0.516242 35.1915 2.71443C32.6554 7.90729 32.1574 16.1524 37.7461 19.2939ZM9.13846 18.2236C6.24265 16.2614 1.65915 18.6002 0.50636 22.2075C-0.194538 24.3976 -0.148426 26.8355 0.524804 29.2238C2.52605 36.1509 10.5218 40.5807 14.5889 33.9806C18.0933 28.3319 13.805 21.4147 9.13846 18.2236ZM27.6846 21.7417C31.5211 16.6182 27.9243 9.24514 23.6636 5.47933C21.0168 3.16038 16.3964 4.84509 15.0039 8.25414C14.1554 10.3055 14.0263 12.7335 14.4874 15.1713C15.8615 22.2471 23.2486 27.6976 27.6846 21.7417ZM55.37 38.6284C53.3227 31.5427 45.9079 28.4706 40.7249 27.767C32.9966 26.7264 24.5951 31.1463 20.7863 39.8671C19.2554 43.3753 17.0881 49.5592 19.1447 53.5133C21.9852 58.9341 29.1233 55.4655 32.554 53.5034C36.621 51.1349 39.858 49.0438 44.5338 49.8466L45.0318 49.9357C50.9433 50.7583 58.2935 48.697 55.37 38.6284ZM61.9179 78.8532C58.8561 77.4559 54.9089 80.6866 54.4017 84.4623C54.0973 86.7515 54.5492 89.1597 55.5821 91.3795C58.5794 97.8309 66.8795 100.685 69.6462 93.3615C72.0255 87.0389 66.8426 81.083 61.9179 78.8532ZM80.4916 78.4271C83.4981 72.4712 78.804 65.9305 73.9991 63.1359C71.0295 61.4016 66.7135 64.0972 65.8374 67.7837C65.3117 70.0135 65.5515 72.4513 66.3907 74.7604C68.8254 81.5091 76.9779 85.3245 80.4916 78.4271ZM116.533 64.3152C115.841 61.9269 114.623 59.8854 112.908 58.4782C110.077 56.1791 105.06 56.9917 103.677 60.3611C101.463 65.8017 101.491 74.1162 107.347 76.7027C114.144 79.7352 118.478 71.2522 116.533 64.3152ZM90.1105 74.4135C96.8797 76.6928 100.181 67.7342 97.636 61.035C96.7598 58.7359 95.3857 56.7935 93.615 55.5944C90.6915 53.6124 85.9789 54.9799 84.9921 58.498C83.4243 64.1864 84.2636 72.4613 90.1105 74.4135ZM105.244 85.3047C97.5622 80.3596 88.2845 81.7469 82.4191 87.2371C78.4812 90.9336 73.9346 97.9201 75.9174 105.036C78.7302 115.144 85.8959 112.438 90.3595 108.207L90.7376 107.83C94.196 104.372 97.968 104.154 102.57 103.688C106.434 103.262 114.172 101.845 113.692 95.6507C113.36 91.1218 108.334 87.2966 105.244 85.3047Z" fill="#848484"/>
</svg>
